<?xml version="1.0" encoding="UTF-8" standalone="no"?>
<!DOCTYPE svg PUBLIC "-//W3C//DTD SVG 1.1//EN"
 "http://www.w3.org/Graphics/SVG/1.1/DTD/svg11.dtd">
<!-- Generated by graphviz version 11.0.0 (20240428.1522)
 -->
<!-- Pages: 1 -->
<svg width="1575pt" height="210pt"
 viewBox="0.00 0.00 1574.75 210.00" xmlns="http://www.w3.org/2000/svg" xmlns:xlink="http://www.w3.org/1999/xlink">
<g id="graph0" class="graph" transform="scale(1 1) rotate(0) translate(4 206)">
<polygon fill="white" stroke="none" points="-4,4 -4,-206 1570.75,-206 1570.75,4 -4,4"/>
<!-- 1843231396864 -->
<g id="node1" class="node">
<title>1843231396864</title>
<polygon fill="none" stroke="black" points="327.75,-55.5 327.75,-91.5 543,-91.5 543,-55.5 327.75,-55.5"/>
<text text-anchor="middle" x="354.12" y="-68.2" font-family="Times New Roman,serif" font-size="14.00">x2*w2</text>
<polyline fill="none" stroke="black" points="380.5,-55.75 380.5,-91.5"/>
<text text-anchor="middle" x="420.75" y="-68.2" font-family="Times New Roman,serif" font-size="14.00">data 0.0000</text>
<polyline fill="none" stroke="black" points="461,-55.75 461,-91.5"/>
<text text-anchor="middle" x="502" y="-68.2" font-family="Times New Roman,serif" font-size="14.00">grad 0.5000</text>
</g>
<!-- 1843231494832+ -->
<g id="node5" class="node">
<title>1843231494832+</title>
<ellipse fill="none" stroke="black" cx="608.25" cy="-100.5" rx="27" ry="18"/>
<text text-anchor="middle" x="608.25" y="-95.08" font-family="Times New Roman,serif" font-size="14.00">+</text>
</g>
<!-- 1843231396864&#45;&gt;1843231494832+ -->
<g id="edge7" class="edge">
<title>1843231396864&#45;&gt;1843231494832+</title>
<path fill="none" stroke="black" d="M543.14,-90.37C552.77,-91.89 562.01,-93.35 570.33,-94.67"/>
<polygon fill="black" stroke="black" points="569.51,-98.08 579.94,-96.18 570.61,-91.17 569.51,-98.08"/>
</g>
<!-- 1843231396864* -->
<g id="node2" class="node">
<title>1843231396864*</title>
<ellipse fill="none" stroke="black" cx="262.5" cy="-73.5" rx="27" ry="18"/>
<text text-anchor="middle" x="262.5" y="-68.08" font-family="Times New Roman,serif" font-size="14.00">*</text>
</g>
<!-- 1843231396864*&#45;&gt;1843231396864 -->
<g id="edge1" class="edge">
<title>1843231396864*&#45;&gt;1843231396864</title>
<path fill="none" stroke="black" d="M289.82,-73.5C297.5,-73.5 306.41,-73.5 315.98,-73.5"/>
<polygon fill="black" stroke="black" points="315.97,-77 325.97,-73.5 315.97,-70 315.97,-77"/>
</g>
<!-- 1843190231616 -->
<g id="node3" class="node">
<title>1843190231616</title>
<polygon fill="none" stroke="black" points="0,-165.5 0,-201.5 199.5,-201.5 199.5,-165.5 0,-165.5"/>
<text text-anchor="middle" x="16.25" y="-178.2" font-family="Times New Roman,serif" font-size="14.00">w1</text>
<polyline fill="none" stroke="black" points="32.5,-165.75 32.5,-201.5"/>
<text text-anchor="middle" x="75" y="-178.2" font-family="Times New Roman,serif" font-size="14.00">data &#45;3.0000</text>
<polyline fill="none" stroke="black" points="117.5,-165.75 117.5,-201.5"/>
<text text-anchor="middle" x="158.5" y="-178.2" font-family="Times New Roman,serif" font-size="14.00">grad 1.0000</text>
</g>
<!-- 1842784922000* -->
<g id="node15" class="node">
<title>1842784922000*</title>
<ellipse fill="none" stroke="black" cx="262.5" cy="-128.5" rx="27" ry="18"/>
<text text-anchor="middle" x="262.5" y="-123.08" font-family="Times New Roman,serif" font-size="14.00">*</text>
</g>
<!-- 1843190231616&#45;&gt;1842784922000* -->
<g id="edge11" class="edge">
<title>1843190231616&#45;&gt;1842784922000*</title>
<path fill="none" stroke="black" d="M173.43,-165.03C182.28,-162.37 191.14,-159.51 199.5,-156.5 209.59,-152.87 220.33,-148.29 229.98,-143.89"/>
<polygon fill="black" stroke="black" points="231.37,-147.1 238.95,-139.7 228.41,-140.76 231.37,-147.1"/>
</g>
<!-- 1843231494832 -->
<g id="node4" class="node">
<title>1843231494832</title>
<polygon fill="none" stroke="black" points="671.25,-82.5 671.25,-118.5 943.5,-118.5 943.5,-82.5 671.25,-82.5"/>
<text text-anchor="middle" x="723.88" y="-95.2" font-family="Times New Roman,serif" font-size="14.00">x1*w1 + x2*w2</text>
<polyline fill="none" stroke="black" points="776.5,-82.75 776.5,-118.5"/>
<text text-anchor="middle" x="819" y="-95.2" font-family="Times New Roman,serif" font-size="14.00">data &#45;6.0000</text>
<polyline fill="none" stroke="black" points="861.5,-82.75 861.5,-118.5"/>
<text text-anchor="middle" x="902.5" y="-95.2" font-family="Times New Roman,serif" font-size="14.00">grad 0.5000</text>
</g>
<!-- 1843231494384+ -->
<g id="node9" class="node">
<title>1843231494384+</title>
<ellipse fill="none" stroke="black" cx="1006.5" cy="-127.5" rx="27" ry="18"/>
<text text-anchor="middle" x="1006.5" y="-122.08" font-family="Times New Roman,serif" font-size="14.00">+</text>
</g>
<!-- 1843231494832&#45;&gt;1843231494384+ -->
<g id="edge6" class="edge">
<title>1843231494832&#45;&gt;1843231494384+</title>
<path fill="none" stroke="black" d="M943.4,-118.99C952.34,-120.22 960.81,-121.38 968.46,-122.43"/>
<polygon fill="black" stroke="black" points="967.87,-125.88 978.25,-123.77 968.82,-118.94 967.87,-125.88"/>
</g>
<!-- 1843231494832+&#45;&gt;1843231494832 -->
<g id="edge2" class="edge">
<title>1843231494832+&#45;&gt;1843231494832</title>
<path fill="none" stroke="black" d="M635.43,-100.5C642.57,-100.5 650.85,-100.5 659.84,-100.5"/>
<polygon fill="black" stroke="black" points="659.6,-104 669.6,-100.5 659.6,-97 659.6,-104"/>
</g>
<!-- 1843231312608 -->
<g id="node6" class="node">
<title>1843231312608</title>
<polygon fill="none" stroke="black" points="1380.75,-109.5 1380.75,-145.5 1566.75,-145.5 1566.75,-109.5 1380.75,-109.5"/>
<text text-anchor="middle" x="1392.5" y="-122.2" font-family="Times New Roman,serif" font-size="14.00">o</text>
<polyline fill="none" stroke="black" points="1404.25,-109.75 1404.25,-145.5"/>
<text text-anchor="middle" x="1444.5" y="-122.2" font-family="Times New Roman,serif" font-size="14.00">data 0.7071</text>
<polyline fill="none" stroke="black" points="1484.75,-109.75 1484.75,-145.5"/>
<text text-anchor="middle" x="1525.75" y="-122.2" font-family="Times New Roman,serif" font-size="14.00">grad 1.0000</text>
</g>
<!-- 1843231312608tanh -->
<g id="node7" class="node">
<title>1843231312608tanh</title>
<ellipse fill="none" stroke="black" cx="1317.75" cy="-127.5" rx="27" ry="18"/>
<text text-anchor="middle" x="1317.75" y="-122.08" font-family="Times New Roman,serif" font-size="14.00">tanh</text>
</g>
<!-- 1843231312608tanh&#45;&gt;1843231312608 -->
<g id="edge3" class="edge">
<title>1843231312608tanh&#45;&gt;1843231312608</title>
<path fill="none" stroke="black" d="M1345.22,-127.5C1352.36,-127.5 1360.53,-127.5 1369.21,-127.5"/>
<polygon fill="black" stroke="black" points="1368.94,-131 1378.94,-127.5 1368.94,-124 1368.94,-131"/>
</g>
<!-- 1843231494384 -->
<g id="node8" class="node">
<title>1843231494384</title>
<polygon fill="none" stroke="black" points="1069.5,-109.5 1069.5,-145.5 1254.75,-145.5 1254.75,-109.5 1069.5,-109.5"/>
<text text-anchor="middle" x="1080.88" y="-122.2" font-family="Times New Roman,serif" font-size="14.00">n</text>
<polyline fill="none" stroke="black" points="1092.25,-109.75 1092.25,-145.5"/>
<text text-anchor="middle" x="1132.5" y="-122.2" font-family="Times New Roman,serif" font-size="14.00">data 0.8814</text>
<polyline fill="none" stroke="black" points="1172.75,-109.75 1172.75,-145.5"/>
<text text-anchor="middle" x="1213.75" y="-122.2" font-family="Times New Roman,serif" font-size="14.00">grad 0.5000</text>
</g>
<!-- 1843231494384&#45;&gt;1843231312608tanh -->
<g id="edge13" class="edge">
<title>1843231494384&#45;&gt;1843231312608tanh</title>
<path fill="none" stroke="black" d="M1255.15,-127.5C1263.52,-127.5 1271.64,-127.5 1279.09,-127.5"/>
<polygon fill="black" stroke="black" points="1279.03,-131 1289.03,-127.5 1279.03,-124 1279.03,-131"/>
</g>
<!-- 1843231494384+&#45;&gt;1843231494384 -->
<g id="edge4" class="edge">
<title>1843231494384+&#45;&gt;1843231494384</title>
<path fill="none" stroke="black" d="M1033.91,-127.5C1040.95,-127.5 1049,-127.5 1057.55,-127.5"/>
<polygon fill="black" stroke="black" points="1057.54,-131 1067.54,-127.5 1057.54,-124 1057.54,-131"/>
</g>
<!-- 1843231442256 -->
<g id="node10" class="node">
<title>1843231442256</title>
<polygon fill="none" stroke="black" points="2.25,-55.5 2.25,-91.5 197.25,-91.5 197.25,-55.5 2.25,-55.5"/>
<text text-anchor="middle" x="18.5" y="-68.2" font-family="Times New Roman,serif" font-size="14.00">w2</text>
<polyline fill="none" stroke="black" points="34.75,-55.75 34.75,-91.5"/>
<text text-anchor="middle" x="75" y="-68.2" font-family="Times New Roman,serif" font-size="14.00">data 1.0000</text>
<polyline fill="none" stroke="black" points="115.25,-55.75 115.25,-91.5"/>
<text text-anchor="middle" x="156.25" y="-68.2" font-family="Times New Roman,serif" font-size="14.00">grad 0.0000</text>
</g>
<!-- 1843231442256&#45;&gt;1843231396864* -->
<g id="edge14" class="edge">
<title>1843231442256&#45;&gt;1843231396864*</title>
<path fill="none" stroke="black" d="M197.51,-73.5C206.8,-73.5 215.79,-73.5 223.94,-73.5"/>
<polygon fill="black" stroke="black" points="223.72,-77 233.72,-73.5 223.72,-70 223.72,-77"/>
</g>
<!-- 1843190227808 -->
<g id="node11" class="node">
<title>1843190227808</title>
<polygon fill="none" stroke="black" points="3.75,-0.5 3.75,-36.5 195.75,-36.5 195.75,-0.5 3.75,-0.5"/>
<text text-anchor="middle" x="18.5" y="-13.2" font-family="Times New Roman,serif" font-size="14.00">x2</text>
<polyline fill="none" stroke="black" points="33.25,-0.75 33.25,-36.5"/>
<text text-anchor="middle" x="73.5" y="-13.2" font-family="Times New Roman,serif" font-size="14.00">data 0.0000</text>
<polyline fill="none" stroke="black" points="113.75,-0.75 113.75,-36.5"/>
<text text-anchor="middle" x="154.75" y="-13.2" font-family="Times New Roman,serif" font-size="14.00">grad 0.5000</text>
</g>
<!-- 1843190227808&#45;&gt;1843231396864* -->
<g id="edge9" class="edge">
<title>1843190227808&#45;&gt;1843231396864*</title>
<path fill="none" stroke="black" d="M170.45,-36.99C180.27,-39.97 190.19,-43.17 199.5,-46.5 209.46,-50.06 220.09,-54.46 229.68,-58.67"/>
<polygon fill="black" stroke="black" points="228.04,-61.77 238.6,-62.66 230.9,-55.38 228.04,-61.77"/>
</g>
<!-- 1843231377744 -->
<g id="node12" class="node">
<title>1843231377744</title>
<polygon fill="none" stroke="black" points="1.5,-110.5 1.5,-146.5 198,-146.5 198,-110.5 1.5,-110.5"/>
<text text-anchor="middle" x="16.25" y="-123.2" font-family="Times New Roman,serif" font-size="14.00">x1</text>
<polyline fill="none" stroke="black" points="31,-110.75 31,-146.5"/>
<text text-anchor="middle" x="71.25" y="-123.2" font-family="Times New Roman,serif" font-size="14.00">data 2.0000</text>
<polyline fill="none" stroke="black" points="111.5,-110.75 111.5,-146.5"/>
<text text-anchor="middle" x="154.75" y="-123.2" font-family="Times New Roman,serif" font-size="14.00">grad &#45;1.5000</text>
</g>
<!-- 1843231377744&#45;&gt;1842784922000* -->
<g id="edge8" class="edge">
<title>1843231377744&#45;&gt;1842784922000*</title>
<path fill="none" stroke="black" d="M198.43,-128.5C207.33,-128.5 215.94,-128.5 223.79,-128.5"/>
<polygon fill="black" stroke="black" points="223.53,-132 233.53,-128.5 223.53,-125 223.53,-132"/>
</g>
<!-- 1843231444304 -->
<g id="node13" class="node">
<title>1843231444304</title>
<polygon fill="none" stroke="black" points="714.38,-137.5 714.38,-173.5 900.38,-173.5 900.38,-137.5 714.38,-137.5"/>
<text text-anchor="middle" x="726.12" y="-150.2" font-family="Times New Roman,serif" font-size="14.00">b</text>
<polyline fill="none" stroke="black" points="737.88,-137.75 737.88,-173.5"/>
<text text-anchor="middle" x="778.12" y="-150.2" font-family="Times New Roman,serif" font-size="14.00">data 6.8814</text>
<polyline fill="none" stroke="black" points="818.38,-137.75 818.38,-173.5"/>
<text text-anchor="middle" x="859.38" y="-150.2" font-family="Times New Roman,serif" font-size="14.00">grad 0.5000</text>
</g>
<!-- 1843231444304&#45;&gt;1843231494384+ -->
<g id="edge10" class="edge">
<title>1843231444304&#45;&gt;1843231494384+</title>
<path fill="none" stroke="black" d="M900.59,-142.4C924.65,-138.98 949.22,-135.49 968.53,-132.75"/>
<polygon fill="black" stroke="black" points="968.92,-136.23 978.32,-131.36 967.93,-129.3 968.92,-136.23"/>
</g>
<!-- 1842784922000 -->
<g id="node14" class="node">
<title>1842784922000</title>
<polygon fill="none" stroke="black" points="325.5,-110.5 325.5,-146.5 545.25,-146.5 545.25,-110.5 325.5,-110.5"/>
<text text-anchor="middle" x="351.88" y="-123.2" font-family="Times New Roman,serif" font-size="14.00">x1*w1</text>
<polyline fill="none" stroke="black" points="378.25,-110.75 378.25,-146.5"/>
<text text-anchor="middle" x="420.75" y="-123.2" font-family="Times New Roman,serif" font-size="14.00">data &#45;6.0000</text>
<polyline fill="none" stroke="black" points="463.25,-110.75 463.25,-146.5"/>
<text text-anchor="middle" x="504.25" y="-123.2" font-family="Times New Roman,serif" font-size="14.00">grad 0.5000</text>
</g>
<!-- 1842784922000&#45;&gt;1843231494832+ -->
<g id="edge12" class="edge">
<title>1842784922000&#45;&gt;1843231494832+</title>
<path fill="none" stroke="black" d="M545.56,-110.61C554.32,-109.17 562.71,-107.8 570.34,-106.55"/>
<polygon fill="black" stroke="black" points="570.83,-110.02 580.13,-104.94 569.69,-103.11 570.83,-110.02"/>
</g>
<!-- 1842784922000*&#45;&gt;1842784922000 -->
<g id="edge5" class="edge">
<title>1842784922000*&#45;&gt;1842784922000</title>
<path fill="none" stroke="black" d="M289.82,-128.5C296.93,-128.5 305.11,-128.5 313.89,-128.5"/>
<polygon fill="black" stroke="black" points="313.78,-132 323.78,-128.5 313.78,-125 313.78,-132"/>
</g>
</g>
</svg>
